<?xml version="1.0" encoding="UTF-8" standalone="no"?>
<!-- Created with Inkscape (http://www.inkscape.org/) -->

<svg
   xmlns:dc="http://purl.org/dc/elements/1.1/"
   xmlns:cc="http://creativecommons.org/ns#"
   xmlns:rdf="http://www.w3.org/1999/02/22-rdf-syntax-ns#"
   xmlns:svg="http://www.w3.org/2000/svg"
   xmlns="http://www.w3.org/2000/svg"
   xmlns:sodipodi="http://sodipodi.sourceforge.net/DTD/sodipodi-0.dtd"
   xmlns:inkscape="http://www.inkscape.org/namespaces/inkscape"
   width="8.5in"
   height="11in"
   viewBox="0 0 215.9 279.4"
   version="1.1"
   id="svg10017"
   inkscape:version="0.92.3 (2405546, 2018-03-11)"
   sodipodi:docname="garden-beds-pattern-02.svg">
  <defs
     id="defs10011" />
  <sodipodi:namedview
     id="base"
     pagecolor="#ffffff"
     bordercolor="#666666"
     borderopacity="1.0"
     inkscape:pageopacity="0.0"
     inkscape:pageshadow="2"
     inkscape:zoom="0.90814394"
     inkscape:cx="406.89885"
     inkscape:cy="528"
     inkscape:document-units="mm"
     inkscape:current-layer="layer13"
     showgrid="false"
     showguides="false"
     units="in"
     inkscape:window-width="1853"
     inkscape:window-height="1148"
     inkscape:window-x="67"
     inkscape:window-y="24"
     inkscape:window-maximized="1" />
  <metadata
     id="metadata10014">
    <rdf:RDF>
      <cc:Work
         rdf:about="">
        <dc:format>image/svg+xml</dc:format>
        <dc:type
           rdf:resource="http://purl.org/dc/dcmitype/StillImage" />
        <dc:title></dc:title>
      </cc:Work>
    </rdf:RDF>
  </metadata>
  <g
     inkscape:groupmode="layer"
     id="layer14"
     inkscape:label="Shapes">
    <path
       inkscape:connector-curvature="0"
       style="display:inline;opacity:1;vector-effect:none;fill:#8d8d8d;fill-opacity:1;stroke:none;stroke-width:3.91148114;stroke-linecap:round;stroke-linejoin:round;stroke-miterlimit:4;stroke-dasharray:none;stroke-dashoffset:0;stroke-opacity:1"
       d="m 31.75,47.625 v 184.15 h 152.4 V 47.625 Z m 101.6,38.101035 h 41.275 V 193.67397 H 133.35 Z"
       id="rect30597" />
    <path
       inkscape:connector-curvature="0"
       id="path30820"
       style="display:inline;fill:none;fill-rule:evenodd;stroke:#000000;stroke-width:0.26499999;stroke-linecap:butt;stroke-linejoin:miter;stroke-miterlimit:4;stroke-dasharray:none;stroke-opacity:0.50196078"
       d="M 133.35,193.67396 174.625,85.726035 m -41.275,0 41.275,107.947925 v 0" />
  </g>
  <g
     inkscape:groupmode="layer"
     id="layer12"
     inkscape:label="Measurements"
     style="display:inline">
    <g
       transform="translate(4.1639252e-6,3.008506)"
       style="display:inline"
       id="g30727">
      <path
         inkscape:connector-curvature="0"
         d="m 31.75,97.300185 h 101.6 M 32.014583,94.19167 v 6.21703 M 133.08542,94.19167 v 6.21703"
         style="fill:none;fill-rule:evenodd;stroke:#000000;stroke-width:0.5291667;stroke-linecap:butt;stroke-linejoin:miter;stroke-miterlimit:4;stroke-dasharray:none;stroke-opacity:1"
         id="path25640" />
      <text
         xml:space="preserve"
         style="font-style:normal;font-variant:normal;font-weight:normal;font-stretch:normal;font-size:2.62508082px;line-height:125%;font-family:Ubuntu;-inkscape-font-specification:'Ubuntu, Normal';font-variant-ligatures:normal;font-variant-caps:normal;font-variant-numeric:normal;font-feature-settings:normal;text-align:center;letter-spacing:0px;word-spacing:0px;writing-mode:lr-tb;text-anchor:middle;display:inline;fill:#000000;fill-opacity:1;stroke:none;stroke-width:0.01538133px;stroke-linecap:butt;stroke-linejoin:miter;stroke-opacity:1"
         x="82.545837"
         y="103.8712"
         id="text19303"><tspan
           sodipodi:role="line"
           id="tspan19301"
           x="82.545837"
           y="103.8712"
           style="font-style:normal;font-variant:normal;font-weight:bold;font-stretch:normal;font-size:5.25016165px;font-family:Ubuntu;-inkscape-font-specification:'Ubuntu, Normal';font-variant-ligatures:normal;font-variant-caps:normal;font-variant-numeric:normal;font-feature-settings:normal;text-align:center;writing-mode:lr-tb;text-anchor:middle;stroke-width:0.01538133px">4″</tspan></text>
    </g>
    <path
       id="path25668"
       style="fill:none;fill-rule:evenodd;stroke:#000000;stroke-width:0.5291667;stroke-linecap:butt;stroke-linejoin:miter;stroke-miterlimit:4;stroke-dasharray:none;stroke-opacity:1"
       d="m 31.75,231.51042 h 6.21703 M 31.75,47.889587 h 6.21703 M 34.85851,47.625004 V 231.775"
       inkscape:connector-curvature="0" />
    <text
       xml:space="preserve"
       style="font-style:normal;font-variant:normal;font-weight:normal;font-stretch:normal;font-size:2.62508082px;line-height:125%;font-family:Ubuntu;-inkscape-font-specification:'Ubuntu, Normal';font-variant-ligatures:normal;font-variant-caps:normal;font-variant-numeric:normal;font-feature-settings:normal;text-align:center;letter-spacing:0px;word-spacing:0px;writing-mode:lr-tb;text-anchor:middle;display:inline;fill:#000000;fill-opacity:1;stroke:none;stroke-width:0.01538133px;stroke-linecap:butt;stroke-linejoin:miter;stroke-opacity:1"
       x="41.628513"
       y="141.61369"
       id="text25679"><tspan
         sodipodi:role="line"
         id="tspan25677"
         x="41.628513"
         y="141.61369"
         style="font-style:normal;font-variant:normal;font-weight:bold;font-stretch:normal;font-size:5.25016165px;font-family:Ubuntu;-inkscape-font-specification:'Ubuntu, Normal';font-variant-ligatures:normal;font-variant-caps:normal;font-variant-numeric:normal;font-feature-settings:normal;text-align:center;writing-mode:lr-tb;text-anchor:middle;stroke-width:0.01538133px">7¼″</tspan></text>
    <g
       id="g30815"
       transform="translate(0,0.50943318)">
      <text
         xml:space="preserve"
         style="font-style:normal;font-variant:normal;font-weight:normal;font-stretch:normal;font-size:2.62508082px;line-height:125%;font-family:Ubuntu;-inkscape-font-specification:'Ubuntu, Normal';font-variant-ligatures:normal;font-variant-caps:normal;font-variant-numeric:normal;font-feature-settings:normal;text-align:center;letter-spacing:0px;word-spacing:0px;writing-mode:lr-tb;text-anchor:middle;display:inline;fill:#000000;fill-opacity:1;stroke:none;stroke-width:0.01538133px;stroke-linecap:butt;stroke-linejoin:miter;stroke-opacity:1"
         x="150.16371"
         y="78.183487"
         id="text25683"><tspan
           sodipodi:role="line"
           id="tspan25681"
           x="150.16371"
           y="78.183487"
           style="font-style:normal;font-variant:normal;font-weight:bold;font-stretch:normal;font-size:5.25016165px;font-family:Ubuntu;-inkscape-font-specification:'Ubuntu, Normal';font-variant-ligatures:normal;font-variant-caps:normal;font-variant-numeric:normal;font-feature-settings:normal;text-align:center;writing-mode:lr-tb;text-anchor:middle;stroke-width:0.01538133px">1⅝″</tspan></text>
      <path
         inkscape:connector-curvature="0"
         d="m 133.61458,85.21658 v -6.217027 m 40.74584,6.217027 V 78.999553 M 174.625,82.10807 H 133.35"
         style="fill:none;fill-rule:evenodd;stroke:#000000;stroke-width:0.5291667;stroke-linecap:butt;stroke-linejoin:miter;stroke-miterlimit:4;stroke-dasharray:none;stroke-opacity:1"
         id="path25685" />
    </g>
    <g
       id="g30839"
       transform="translate(21.175868,-38.100004)">
      <path
         d="m 108.94185,123.825 v 107.95 m -3.10851,-107.68542 h 6.21703 m -6.21703,107.42084 h 6.21703"
         style="fill:none;fill-rule:evenodd;stroke:#000000;stroke-width:0.5291667;stroke-linecap:butt;stroke-linejoin:miter;stroke-miterlimit:4;stroke-dasharray:none;stroke-opacity:1"
         id="path30823"
         inkscape:connector-curvature="0" />
      <text
         xml:space="preserve"
         style="font-style:normal;font-variant:normal;font-weight:normal;font-stretch:normal;font-size:2.62508082px;line-height:125%;font-family:Ubuntu;-inkscape-font-specification:'Ubuntu, Normal';font-variant-ligatures:normal;font-variant-caps:normal;font-variant-numeric:normal;font-feature-settings:normal;text-align:center;letter-spacing:0px;word-spacing:0px;writing-mode:lr-tb;text-anchor:middle;display:inline;fill:#000000;fill-opacity:1;stroke:none;stroke-width:0.01538133px;stroke-linecap:butt;stroke-linejoin:miter;stroke-opacity:1"
         x="99.836838"
         y="179.7137"
         id="text30834"><tspan
           sodipodi:role="line"
           id="tspan30832"
           x="99.836838"
           y="179.7137"
           style="font-style:normal;font-variant:normal;font-weight:bold;font-stretch:normal;font-size:5.25016165px;font-family:Ubuntu;-inkscape-font-specification:'Ubuntu, Normal';font-variant-ligatures:normal;font-variant-caps:normal;font-variant-numeric:normal;font-feature-settings:normal;text-align:center;writing-mode:lr-tb;text-anchor:middle;stroke-width:0.01538133px">4¼″</tspan></text>
    </g>
    <g
       id="g30877"
       transform="translate(-27.925064,9.0713707)">
      <g
         id="g25890"
         style="display:inline"
         transform="translate(64.842981,-12.246374)">
        <text
           id="text25683-7"
           y="61.70953"
           x="123.24094"
           style="font-style:normal;font-variant:normal;font-weight:normal;font-stretch:normal;font-size:2.62508082px;line-height:125%;font-family:Ubuntu;-inkscape-font-specification:'Ubuntu, Normal';font-variant-ligatures:normal;font-variant-caps:normal;font-variant-numeric:normal;font-feature-settings:normal;text-align:center;letter-spacing:0px;word-spacing:0px;writing-mode:lr-tb;text-anchor:middle;display:inline;fill:#000000;fill-opacity:1;stroke:none;stroke-width:0.01538133px;stroke-linecap:butt;stroke-linejoin:miter;stroke-opacity:1"
           xml:space="preserve"><tspan
             style="font-style:normal;font-variant:normal;font-weight:bold;font-stretch:normal;font-size:5.25016165px;font-family:Ubuntu;-inkscape-font-specification:'Ubuntu, Normal';font-variant-ligatures:normal;font-variant-caps:normal;font-variant-numeric:normal;font-feature-settings:normal;text-align:center;writing-mode:lr-tb;text-anchor:middle;stroke-width:0.01538133px"
             y="61.70953"
             x="123.24094"
             id="tspan25681-7"
             sodipodi:role="line">1½″</tspan></text>
        <path
           id="path30869"
           d="m 133.34999,88.635423 h -6.21703"
           style="fill:none;fill-rule:evenodd;stroke:#000000;stroke-width:0.5291667;stroke-linecap:butt;stroke-linejoin:miter;stroke-miterlimit:4;stroke-dasharray:none;stroke-opacity:1"
           inkscape:connector-curvature="0" />
        <path
           inkscape:connector-curvature="0"
           id="path30867"
           d="m 133.34999,51.064586 h -6.21703"
           style="fill:none;fill-rule:evenodd;stroke:#000000;stroke-width:0.5291667;stroke-linecap:butt;stroke-linejoin:miter;stroke-miterlimit:4;stroke-dasharray:none;stroke-opacity:1" />
        <path
           inkscape:connector-curvature="0"
           id="path25685-0"
           d="m 130.24148,50.800003 v 38.1"
           style="fill:none;fill-rule:evenodd;stroke:#000000;stroke-width:0.5291667;stroke-linecap:butt;stroke-linejoin:miter;stroke-miterlimit:4;stroke-dasharray:none;stroke-opacity:1" />
      </g>
    </g>
    <g
       transform="translate(-33.216731,155.12136)"
       id="g30891">
      <g
         transform="translate(64.842981,-12.246374)"
         style="display:inline"
         id="g30889">
        <text
           xml:space="preserve"
           style="font-style:normal;font-variant:normal;font-weight:normal;font-stretch:normal;font-size:2.62508082px;line-height:125%;font-family:Ubuntu;-inkscape-font-specification:'Ubuntu, Normal';font-variant-ligatures:normal;font-variant-caps:normal;font-variant-numeric:normal;font-feature-settings:normal;text-align:center;letter-spacing:0px;word-spacing:0px;writing-mode:lr-tb;text-anchor:middle;display:inline;fill:#000000;fill-opacity:1;stroke:none;stroke-width:0.01538133px;stroke-linecap:butt;stroke-linejoin:miter;stroke-opacity:1"
           x="123.24094"
           y="71.763695"
           id="text30881"><tspan
             sodipodi:role="line"
             id="tspan30879"
             x="123.24094"
             y="71.763695"
             style="font-style:normal;font-variant:normal;font-weight:bold;font-stretch:normal;font-size:5.25016165px;font-family:Ubuntu;-inkscape-font-specification:'Ubuntu, Normal';font-variant-ligatures:normal;font-variant-caps:normal;font-variant-numeric:normal;font-feature-settings:normal;text-align:center;writing-mode:lr-tb;text-anchor:middle;stroke-width:0.01538133px">1½″</tspan></text>
        <path
           inkscape:connector-curvature="0"
           style="fill:none;fill-rule:evenodd;stroke:#000000;stroke-width:0.5291667;stroke-linecap:butt;stroke-linejoin:miter;stroke-miterlimit:4;stroke-dasharray:none;stroke-opacity:1"
           d="m 133.34999,88.635423 h -6.21703"
           id="path30883" />
        <path
           style="fill:none;fill-rule:evenodd;stroke:#000000;stroke-width:0.5291667;stroke-linecap:butt;stroke-linejoin:miter;stroke-miterlimit:4;stroke-dasharray:none;stroke-opacity:1"
           d="m 133.34999,51.064586 h -6.21703"
           id="path30885"
           inkscape:connector-curvature="0" />
        <path
           style="fill:none;fill-rule:evenodd;stroke:#000000;stroke-width:0.5291667;stroke-linecap:butt;stroke-linejoin:miter;stroke-miterlimit:4;stroke-dasharray:none;stroke-opacity:1"
           d="m 130.24148,50.800003 v 38.1"
           id="path30887"
           inkscape:connector-curvature="0" />
      </g>
    </g>
  </g>
  <g
     inkscape:groupmode="layer"
     id="layer13"
     inkscape:label="Title and Copyright"
     style="display:inline">
    <g
       style="display:inline"
       id="g25879"
       transform="rotate(-90,43.266053,-18.808097)">
      <g
         transform="translate(-374.78153,75.619162)"
         id="g20046"
         style="display:inline">
        <g
           id="g19897"
           transform="matrix(0.26458333,0,0,0.26458333,126.18947,57.317044)"
           style="fill:#000000;fill-opacity:1">
          <path
             id="path19891"
             d="m 36.307,32.333 c -1.21,0 -2.126,-0.442 -2.748,-1.325 -0.622,-0.883 -0.932,-2.061 -0.932,-3.532 0,-3.238 1.227,-4.857 3.68,-4.857 0.523,0 1.071,0.164 1.644,0.491 0.572,0.327 1.055,0.9 1.448,1.717 l 3.63,-1.914 c -1.439,-2.649 -3.86,-3.974 -7.261,-3.974 -2.323,0 -4.244,0.769 -5.765,2.306 -1.521,1.538 -2.281,3.615 -2.281,6.231 0,2.682 0.744,4.776 2.232,6.28 1.488,1.504 3.475,2.257 5.961,2.257 1.504,0 2.895,-0.384 4.17,-1.153 1.276,-0.768 2.289,-1.823 3.042,-3.165 l -3.435,-1.717 c -0.654,1.57 -1.782,2.355 -3.385,2.355 z"
             inkscape:connector-curvature="0"
             style="fill:#000000;fill-opacity:1" />
          <path
             id="path19893"
             d="m 20.459,32.333 c -1.21,0 -2.126,-0.442 -2.748,-1.325 -0.622,-0.883 -0.932,-2.061 -0.932,-3.532 0,-3.238 1.227,-4.857 3.68,-4.857 0.491,0 1.022,0.164 1.595,0.491 0.572,0.327 1.055,0.9 1.447,1.717 l 3.68,-1.914 c -1.472,-2.649 -3.909,-3.974 -7.311,-3.974 -2.323,0 -4.244,0.769 -5.765,2.306 -1.521,1.538 -2.282,3.615 -2.282,6.231 0,2.682 0.752,4.776 2.257,6.28 1.504,1.504 3.483,2.257 5.937,2.257 1.537,0 2.944,-0.384 4.219,-1.153 1.276,-0.768 2.273,-1.823 2.993,-3.165 l -3.385,-1.717 c -0.654,1.57 -1.782,2.355 -3.385,2.355 z"
             inkscape:connector-curvature="0"
             style="fill:#000000;fill-opacity:1" />
          <path
             id="path19895"
             d="M 52.94,16.903 C 51.598,13.583 49.636,10.631 47.052,8.047 41.655,2.683 35.113,0 27.427,0 19.805,0 13.377,2.667 8.145,7.998 5.496,10.647 3.476,13.649 2.086,17.001 0.694,20.354 0,23.845 0,27.476 c 0,3.664 0.687,7.147 2.061,10.451 1.374,3.304 3.377,6.272 6.01,8.905 2.633,2.633 5.609,4.645 8.93,6.035 3.32,1.391 6.795,2.085 10.426,2.085 3.631,0 7.146,-0.703 10.549,-2.11 3.401,-1.406 6.443,-3.435 9.125,-6.084 2.583,-2.518 4.539,-5.421 5.863,-8.708 1.325,-3.288 1.987,-6.812 1.987,-10.573 10e-4,-3.73 -0.67,-7.254 -2.011,-10.574 z m -9.371,26.323 c -2.225,2.159 -4.719,3.811 -7.482,4.955 -2.765,1.146 -5.618,1.717 -8.562,1.717 -2.977,0 -5.823,-0.564 -8.537,-1.692 C 16.273,47.078 13.836,45.442 11.677,43.299 9.518,41.157 7.858,38.72 6.697,35.988 5.535,33.258 4.955,30.42 4.955,27.476 c 0,-2.976 0.58,-5.83 1.742,-8.562 1.161,-2.731 2.821,-5.192 4.98,-7.384 4.285,-4.383 9.567,-6.575 15.848,-6.575 6.214,0 11.53,2.208 15.946,6.624 2.125,2.127 3.745,4.547 4.857,7.262 1.112,2.715 1.668,5.593 1.668,8.635 0,6.313 -2.142,11.563 -6.427,15.75 z"
             inkscape:connector-curvature="0"
             style="fill:#000000;fill-opacity:1" />
        </g>
        <g
           id="g19958"
           transform="matrix(0.26458333,0,0,0.26458333,160.13796,57.317044)"
           style="fill:#000000;fill-opacity:1">
          <path
             id="path19954"
             d="m 27.329,13.002 c -3.14,0 -5.807,0.924 -7.998,2.772 -2.192,1.848 -3.549,4.457 -4.072,7.826 H 13.1 l 5.446,5.446 5.446,-5.446 H 21.98 c 0.458,-3.238 2.519,-4.857 6.182,-4.857 2.028,0 3.582,0.761 4.661,2.282 1.079,1.521 1.619,3.737 1.619,6.648 0,2.781 -0.589,5.004 -1.767,6.673 -1.177,1.668 -2.731,2.502 -4.661,2.502 -3.86,0 -5.872,-1.668 -6.035,-5.004 h -6.918 c 0.458,3.435 1.815,6.084 4.072,7.948 2.257,1.865 4.938,2.797 8.046,2.797 4.22,0 7.654,-1.398 10.304,-4.195 2.649,-2.797 3.974,-6.305 3.974,-10.524 0,-4.35 -1.276,-7.916 -3.827,-10.696 -2.549,-2.781 -5.984,-4.172 -10.301,-4.172 z"
             inkscape:connector-curvature="0"
             style="fill:#000000;fill-opacity:1" />
          <path
             id="path19956"
             d="M 46.954,7.998 C 41.622,2.666 35.113,0 27.427,0 19.871,0 13.427,2.666 8.096,7.998 2.699,13.493 0,19.986 0,27.476 0,35 2.699,41.459 8.096,46.856 c 5.462,5.397 11.905,8.095 19.331,8.095 7.588,0 14.146,-2.714 19.674,-8.145 5.233,-5.201 7.851,-11.644 7.851,-19.331 0,-7.685 -2.667,-14.179 -7.998,-19.477 z M 43.52,43.225 c -4.547,4.482 -9.878,6.722 -15.995,6.722 -6.15,0 -11.449,-2.224 -15.897,-6.672 -4.449,-4.416 -6.672,-9.682 -6.672,-15.799 0,-6.051 2.24,-11.35 6.722,-15.896 4.317,-4.416 9.6,-6.624 15.848,-6.624 6.247,0 11.546,2.208 15.896,6.624 4.383,4.317 6.575,9.616 6.575,15.896 -10e-4,6.313 -2.16,11.563 -6.477,15.749 z"
             inkscape:connector-curvature="0"
             style="fill:#000000;fill-opacity:1" />
        </g>
        <g
           id="g20022"
           transform="matrix(0.26458333,0,0,0.26458333,143.16345,57.317044)"
           style="fill:#000000;fill-opacity:1">
          <path
             id="path20016"
             d="m 27.476,17.418 c 2.551,0 3.827,-1.276 3.827,-3.827 0,-2.583 -1.276,-3.876 -3.827,-3.876 -2.551,0 -3.827,1.292 -3.827,3.876 0,2.551 1.275,3.827 3.827,3.827 z"
             inkscape:connector-curvature="0"
             style="fill:#000000;fill-opacity:1" />
          <path
             id="path20018"
             d="M 46.955,7.949 C 41.655,2.649 35.146,0 27.427,0 19.838,0 13.395,2.649 8.096,7.949 2.699,13.444 0,19.953 0,27.476 0,35 2.699,41.458 8.096,46.856 c 5.462,5.397 11.905,8.097 19.331,8.097 7.556,0 14.114,-2.73 19.674,-8.195 5.232,-5.135 7.852,-11.562 7.852,-19.281 0,-7.687 -2.668,-14.197 -7.998,-19.528 z M 43.52,43.226 c -4.547,4.48 -9.878,6.723 -15.995,6.723 -6.15,0 -11.449,-2.225 -15.897,-6.674 -4.449,-4.447 -6.672,-9.714 -6.672,-15.798 0,-6.051 2.24,-11.366 6.722,-15.946 4.317,-4.383 9.6,-6.575 15.848,-6.575 6.214,0 11.513,2.192 15.896,6.575 4.384,4.383 6.576,9.698 6.576,15.946 -0.002,6.345 -2.161,11.595 -6.478,15.749 z"
             inkscape:connector-curvature="0"
             style="fill:#000000;fill-opacity:1" />
          <path
             id="path20020"
             d="M 33.119,18.89 H 21.833 c -0.491,0 -0.908,0.172 -1.251,0.515 -0.343,0.344 -0.515,0.761 -0.515,1.251 v 11.235 h 3.14 v 13.345 h 8.537 V 31.892 h 3.141 V 20.656 c 0,-0.491 -0.18,-0.908 -0.54,-1.251 -0.361,-0.343 -0.769,-0.515 -1.226,-0.515 z"
             inkscape:connector-curvature="0"
             style="fill:#000000;fill-opacity:1" />
        </g>
      </g>
      <text
         id="text20089"
         y="146.88319"
         x="-197.1825"
         style="font-style:normal;font-variant:normal;font-weight:normal;font-stretch:normal;font-size:10.58333302px;line-height:125%;font-family:'Open Sans';-inkscape-font-specification:'Open Sans';letter-spacing:0px;word-spacing:0px;display:inline;fill:#000000;fill-opacity:1;stroke:none;stroke-width:0.26458332px;stroke-linecap:butt;stroke-linejoin:miter;stroke-opacity:1"
         xml:space="preserve"><tspan
           style="font-style:normal;font-variant:normal;font-weight:normal;font-stretch:normal;font-size:4.23333311px;font-family:Ubuntu;-inkscape-font-specification:Ubuntu;stroke-width:0.26458332px"
           y="146.88319"
           x="-197.1825"
           id="tspan20087"
           sodipodi:role="line">This work is licensed under a Creative Commons Attribution-ShareAlike 4.0 International License.</tspan></text>
    </g>
    <text
       xml:space="preserve"
       style="font-style:normal;font-variant:normal;font-weight:normal;font-stretch:normal;font-size:10.58333302px;line-height:125%;font-family:'Open Sans';-inkscape-font-specification:'Open Sans';letter-spacing:0px;word-spacing:0px;display:inline;fill:#000000;fill-opacity:1;stroke:none;stroke-width:0.26458332px;stroke-linecap:butt;stroke-linejoin:miter;stroke-opacity:1"
       x="105.8782"
       y="28.647991"
       id="text25794"><tspan
         sodipodi:role="line"
         id="tspan25792"
         x="105.8782"
         y="28.647991"
         style="font-style:normal;font-variant:normal;font-weight:500;font-stretch:normal;font-family:Ubuntu;-inkscape-font-specification:'Ubuntu Medium';text-align:center;text-anchor:middle;stroke-width:0.26458332px">4′ Board End Template</tspan></text>
    <text
       xml:space="preserve"
       style="font-style:normal;font-variant:normal;font-weight:normal;font-stretch:normal;font-size:10.58333302px;line-height:125%;font-family:'Open Sans';-inkscape-font-specification:'Open Sans';letter-spacing:0px;word-spacing:0px;display:inline;fill:#000000;fill-opacity:1;stroke:none;stroke-width:0.26458332px;stroke-linecap:butt;stroke-linejoin:miter;stroke-opacity:1"
       x="67.650536"
       y="39.08651"
       id="text34723"><tspan
         sodipodi:role="line"
         id="tspan34721"
         x="67.650536"
         y="39.08651"
         style="font-style:normal;font-variant:normal;font-weight:normal;font-stretch:normal;font-size:8.46666622px;font-family:Ubuntu;-inkscape-font-specification:Ubuntu;stroke-width:0.26458332px">by @doublecompile</tspan></text>
  </g>
</svg>
